<svg xmlns="http://www.w3.org/2000/svg" viewBox="0 0 300 185" fill="none">
  <path d="M61.4385 36.2562C112.319 -12.0854 193.681 -12.0854 244.562 36.2562L250.704 42.1938C253.174 44.5465 253.174 48.3486 250.704 50.7013L229.276 71.2234C228.041 72.3997 226.065 72.3997 224.83 71.2234L216.347 63.0694C181.37 29.5446 118.63 29.5446 83.6532 63.0694L74.5736 71.8113C73.3392 72.9876 71.3628 72.9876 70.1284 71.8113L48.7006 51.2892C46.2307 48.9365 46.2307 45.1344 48.7006 42.7817L61.4385 36.2562ZM287.837 76.9995L306.955 95.2825C309.425 97.6352 309.425 101.437 306.955 103.79L220.753 186.276C218.284 188.628 214.331 188.628 211.86 186.276C211.86 186.276 211.86 186.276 211.86 186.276L152.207 129.136C151.59 128.547 150.602 128.547 149.985 129.136C149.985 129.136 149.985 129.136 149.985 129.136L90.3328 186.276C87.863 188.628 83.9097 188.628 81.4388 186.276C81.4388 186.276 81.4388 186.276 81.4388 186.276L-4.9554 103.777C-7.42525 101.424 -7.42525 97.6221 -4.9554 95.2694L14.1631 76.9864C16.633 74.6337 20.5862 74.6337 23.0561 76.9864L82.7217 134.126C83.3387 134.715 84.3268 134.715 84.9437 134.126C84.9437 134.126 84.9437 134.126 84.9437 134.126L144.596 76.9864C147.066 74.6337 151.019 74.6337 153.489 76.9864L213.142 134.126C213.759 134.715 214.747 134.715 215.364 134.126L275.03 76.9995C277.499 74.6468 281.453 74.6468 283.922 76.9995H287.837Z" fill="#3B99FC"/>
</svg>
